<mxfile host="app.diagrams.net" agent="Mozilla/5.0 (Windows NT 10.0; Win64; x64) AppleWebKit/537.36 (KHTML, like Gecko) Chrome/137.0.0.0 Safari/537.36 Edg/137.0.0.0" version="27.1.6">
  <diagram name="Página-1" id="JsjYgfUwg1E99Odx214-">
    <mxGraphModel grid="1" page="1" gridSize="10" guides="1" tooltips="1" connect="1" arrows="1" fold="1" pageScale="1" pageWidth="827" pageHeight="1169" math="0" shadow="0">
      <root>
        <mxCell id="0" />
        <mxCell id="1" parent="0" />
        <mxCell id="30FtFz2RCGsdJv6julSl-1" value="CU006 Editar cuenta" style="swimlane;childLayout=stackLayout;resizeParent=1;resizeParentMax=0;startSize=20;horizontal=0;horizontalStack=1;" vertex="1" parent="1">
          <mxGeometry x="60" y="200" width="840" height="640" as="geometry">
            <mxRectangle x="200" y="80" width="40" height="50" as="alternateBounds" />
          </mxGeometry>
        </mxCell>
        <mxCell id="30FtFz2RCGsdJv6julSl-64" style="edgeStyle=orthogonalEdgeStyle;rounded=0;orthogonalLoop=1;jettySize=auto;html=1;exitX=1;exitY=0;exitDx=0;exitDy=0;entryX=0.5;entryY=0;entryDx=0;entryDy=0;strokeColor=light-dark(#ff0000, #ededed);" edge="1" parent="30FtFz2RCGsdJv6julSl-1" source="30FtFz2RCGsdJv6julSl-36" target="30FtFz2RCGsdJv6julSl-10">
          <mxGeometry relative="1" as="geometry">
            <Array as="points">
              <mxPoint x="490" y="108" />
              <mxPoint x="620" y="108" />
            </Array>
          </mxGeometry>
        </mxCell>
        <mxCell id="30FtFz2RCGsdJv6julSl-65" value="si" style="edgeLabel;html=1;align=center;verticalAlign=middle;resizable=0;points=[];" vertex="1" connectable="0" parent="30FtFz2RCGsdJv6julSl-64">
          <mxGeometry x="-0.8926" y="3" relative="1" as="geometry">
            <mxPoint x="-9" y="-14" as="offset" />
          </mxGeometry>
        </mxCell>
        <mxCell id="30FtFz2RCGsdJv6julSl-4" value="Administrador" style="swimlane;startSize=20;" vertex="1" parent="30FtFz2RCGsdJv6julSl-1">
          <mxGeometry x="20" width="420" height="640" as="geometry" />
        </mxCell>
        <mxCell id="30FtFz2RCGsdJv6julSl-5" value="" style="ellipse;html=1;shape=startState;fillColor=#000000;strokeColor=#ff0000;fillStyle=auto;" vertex="1" parent="30FtFz2RCGsdJv6julSl-4">
          <mxGeometry x="20" y="25" width="30" height="30" as="geometry" />
        </mxCell>
        <mxCell id="30FtFz2RCGsdJv6julSl-36" value="Pulsa el botón &quot;Administrar cuentas&quot;" style="rhombus;whiteSpace=wrap;html=1;fontColor=#000000;fillColor=#ffffc0;strokeColor=#ff0000;" vertex="1" parent="30FtFz2RCGsdJv6julSl-4">
          <mxGeometry x="60" y="80" width="190" height="110" as="geometry" />
        </mxCell>
        <mxCell id="30FtFz2RCGsdJv6julSl-39" value="" style="edgeStyle=orthogonalEdgeStyle;html=1;verticalAlign=bottom;endArrow=open;endSize=8;strokeColor=#ff0000;rounded=0;entryX=0.5;entryY=0;entryDx=0;entryDy=0;" edge="1" parent="30FtFz2RCGsdJv6julSl-4" source="30FtFz2RCGsdJv6julSl-5" target="30FtFz2RCGsdJv6julSl-36">
          <mxGeometry relative="1" as="geometry">
            <mxPoint x="906" y="335" as="targetPoint" />
            <mxPoint x="340" y="320" as="sourcePoint" />
          </mxGeometry>
        </mxCell>
        <mxCell id="30FtFz2RCGsdJv6julSl-68" value="Diligenciar formulario" style="rounded=1;whiteSpace=wrap;html=1;arcSize=40;fontColor=#000000;fillColor=#ffffc0;strokeColor=#ff0000;" vertex="1" parent="30FtFz2RCGsdJv6julSl-4">
          <mxGeometry x="90" y="280" width="120" height="40" as="geometry" />
        </mxCell>
        <mxCell id="30FtFz2RCGsdJv6julSl-75" value="Pulsar el botón &quot;Guardar&quot;" style="rounded=1;whiteSpace=wrap;html=1;arcSize=40;fontColor=#000000;fillColor=#ffffc0;strokeColor=#ff0000;" vertex="1" parent="30FtFz2RCGsdJv6julSl-4">
          <mxGeometry x="110" y="430" width="120" height="40" as="geometry" />
        </mxCell>
        <mxCell id="30FtFz2RCGsdJv6julSl-76" value="" style="edgeStyle=orthogonalEdgeStyle;html=1;verticalAlign=bottom;endArrow=open;endSize=8;strokeColor=#ff0000;rounded=0;exitX=0.5;exitY=1;exitDx=0;exitDy=0;entryX=0.428;entryY=0.438;entryDx=0;entryDy=0;entryPerimeter=0;" edge="1" parent="30FtFz2RCGsdJv6julSl-4" source="30FtFz2RCGsdJv6julSl-75" target="30FtFz2RCGsdJv6julSl-79">
          <mxGeometry relative="1" as="geometry">
            <mxPoint x="170" y="570" as="targetPoint" />
            <Array as="points">
              <mxPoint x="170" y="524" />
              <mxPoint x="340" y="524" />
            </Array>
          </mxGeometry>
        </mxCell>
        <mxCell id="30FtFz2RCGsdJv6julSl-79" value="" style="shape=line;html=1;strokeWidth=6;strokeColor=#ff0000;rotation=-91;" vertex="1" parent="30FtFz2RCGsdJv6julSl-4">
          <mxGeometry x="330" y="500" width="120" height="30" as="geometry" />
        </mxCell>
        <mxCell id="hCQ_3N1NEQREZTXW8boa-15" value="Pulsar el botón &quot;Editar &quot;" style="rounded=1;whiteSpace=wrap;html=1;arcSize=40;fontColor=#000000;fillColor=#ffffc0;strokeColor=light-dark(#ff0000, #ededed);" vertex="1" parent="30FtFz2RCGsdJv6julSl-4">
          <mxGeometry x="95" y="210" width="120" height="40" as="geometry" />
        </mxCell>
        <mxCell id="30FtFz2RCGsdJv6julSl-9" value="Sistema" style="swimlane;startSize=20;" vertex="1" parent="30FtFz2RCGsdJv6julSl-1">
          <mxGeometry x="440" width="400" height="640" as="geometry" />
        </mxCell>
        <mxCell id="30FtFz2RCGsdJv6julSl-10" value="Mostrar apartado" style="rounded=1;whiteSpace=wrap;html=1;arcSize=40;fontColor=#000000;fillColor=#ffffc0;strokeColor=#ff0000;" vertex="1" parent="30FtFz2RCGsdJv6julSl-9">
          <mxGeometry x="210" y="130" width="120" height="50" as="geometry" />
        </mxCell>
        <mxCell id="30FtFz2RCGsdJv6julSl-13" value="Mostrar formulario edición de cuenta&amp;nbsp;" style="rounded=1;whiteSpace=wrap;html=1;arcSize=40;fontColor=#000000;fillColor=#ffffc0;strokeColor=light-dark(#ff0000, #ededed);" vertex="1" parent="30FtFz2RCGsdJv6julSl-9">
          <mxGeometry x="210" y="240" width="120" height="40" as="geometry" />
        </mxCell>
        <mxCell id="30FtFz2RCGsdJv6julSl-71" value="¿Datos válidos?" style="rhombus;whiteSpace=wrap;html=1;fontColor=#000000;fillColor=#ffffc0;strokeColor=#ff0000;" vertex="1" parent="30FtFz2RCGsdJv6julSl-9">
          <mxGeometry x="130" y="310" width="100" height="40" as="geometry" />
        </mxCell>
        <mxCell id="30FtFz2RCGsdJv6julSl-77" value="Guarda los datos&amp;nbsp;" style="rounded=1;whiteSpace=wrap;html=1;arcSize=40;fontColor=#000000;fillColor=#ffffc0;strokeColor=#ff0000;" vertex="1" parent="30FtFz2RCGsdJv6julSl-9">
          <mxGeometry x="60" y="470" width="120" height="40" as="geometry" />
        </mxCell>
        <mxCell id="30FtFz2RCGsdJv6julSl-78" value="" style="edgeStyle=orthogonalEdgeStyle;html=1;verticalAlign=bottom;endArrow=open;endSize=8;strokeColor=#ff0000;rounded=0;entryX=0.5;entryY=0;entryDx=0;entryDy=0;" edge="1" parent="30FtFz2RCGsdJv6julSl-9" source="30FtFz2RCGsdJv6julSl-77" target="Y5qOcHa0yEXanUPjaL8A-3">
          <mxGeometry relative="1" as="geometry">
            <mxPoint x="250" y="580" as="targetPoint" />
          </mxGeometry>
        </mxCell>
        <mxCell id="30FtFz2RCGsdJv6julSl-84" value="Edita la cuenta" style="rounded=1;whiteSpace=wrap;html=1;arcSize=40;fontColor=#000000;fillColor=#ffffc0;strokeColor=#ff0000;" vertex="1" parent="30FtFz2RCGsdJv6julSl-9">
          <mxGeometry x="60" y="560" width="120" height="40" as="geometry" />
        </mxCell>
        <mxCell id="30FtFz2RCGsdJv6julSl-85" value="" style="edgeStyle=orthogonalEdgeStyle;html=1;verticalAlign=bottom;endArrow=open;endSize=8;strokeColor=#ff0000;rounded=0;entryX=0;entryY=0.5;entryDx=0;entryDy=0;" edge="1" parent="30FtFz2RCGsdJv6julSl-9" source="30FtFz2RCGsdJv6julSl-84" target="Y5qOcHa0yEXanUPjaL8A-3">
          <mxGeometry relative="1" as="geometry">
            <mxPoint x="250" y="660" as="targetPoint" />
          </mxGeometry>
        </mxCell>
        <mxCell id="30FtFz2RCGsdJv6julSl-40" value="" style="ellipse;html=1;shape=endState;fillColor=#000000;strokeColor=#ff0000;" vertex="1" parent="30FtFz2RCGsdJv6julSl-9">
          <mxGeometry x="290" y="600" width="30" height="30" as="geometry" />
        </mxCell>
        <mxCell id="Y5qOcHa0yEXanUPjaL8A-1" value="Mostrar mensaje de error" style="rounded=1;whiteSpace=wrap;html=1;arcSize=40;fontColor=#000000;fillColor=#ffffc0;strokeColor=#ff0000;" vertex="1" parent="30FtFz2RCGsdJv6julSl-9">
          <mxGeometry x="20" y="365" width="120" height="40" as="geometry" />
        </mxCell>
        <mxCell id="30FtFz2RCGsdJv6julSl-73" value="no" style="edgeStyle=orthogonalEdgeStyle;html=1;align=left;verticalAlign=top;endArrow=open;endSize=8;strokeColor=#ff0000;rounded=0;entryX=1;entryY=0.5;entryDx=0;entryDy=0;exitX=0.5;exitY=1;exitDx=0;exitDy=0;" edge="1" parent="30FtFz2RCGsdJv6julSl-9" source="30FtFz2RCGsdJv6julSl-71" target="Y5qOcHa0yEXanUPjaL8A-1">
          <mxGeometry x="-1" relative="1" as="geometry">
            <mxPoint x="50" y="430" as="targetPoint" />
            <mxPoint x="130" y="370" as="sourcePoint" />
            <Array as="points">
              <mxPoint x="180" y="385" />
            </Array>
          </mxGeometry>
        </mxCell>
        <mxCell id="Y5qOcHa0yEXanUPjaL8A-4" style="edgeStyle=orthogonalEdgeStyle;rounded=0;orthogonalLoop=1;jettySize=auto;html=1;entryX=0.5;entryY=0;entryDx=0;entryDy=0;strokeColor=#FF0000;" edge="1" parent="30FtFz2RCGsdJv6julSl-9" source="Y5qOcHa0yEXanUPjaL8A-3" target="30FtFz2RCGsdJv6julSl-40">
          <mxGeometry relative="1" as="geometry" />
        </mxCell>
        <mxCell id="Y5qOcHa0yEXanUPjaL8A-3" value="Mostrar mensaje de éxito" style="rounded=1;whiteSpace=wrap;html=1;arcSize=40;fontColor=#000000;fillColor=#ffffc0;strokeColor=#ff0000;" vertex="1" parent="30FtFz2RCGsdJv6julSl-9">
          <mxGeometry x="245" y="520" width="120" height="40" as="geometry" />
        </mxCell>
        <mxCell id="30FtFz2RCGsdJv6julSl-62" style="edgeStyle=orthogonalEdgeStyle;rounded=0;orthogonalLoop=1;jettySize=auto;html=1;strokeColor=light-dark(#ff0000, #ededed);" edge="1" parent="30FtFz2RCGsdJv6julSl-1" source="30FtFz2RCGsdJv6julSl-13" target="30FtFz2RCGsdJv6julSl-68">
          <mxGeometry relative="1" as="geometry">
            <mxPoint x="489.9599999999998" y="293.43000000000006" as="targetPoint" />
            <Array as="points">
              <mxPoint x="490" y="260" />
            </Array>
          </mxGeometry>
        </mxCell>
        <mxCell id="30FtFz2RCGsdJv6julSl-69" value="" style="edgeStyle=orthogonalEdgeStyle;html=1;verticalAlign=bottom;endArrow=open;endSize=8;strokeColor=#ff0000;rounded=0;entryX=0;entryY=0.5;entryDx=0;entryDy=0;" edge="1" parent="30FtFz2RCGsdJv6julSl-1" source="30FtFz2RCGsdJv6julSl-68" target="30FtFz2RCGsdJv6julSl-71">
          <mxGeometry relative="1" as="geometry">
            <mxPoint x="175" y="340" as="targetPoint" />
            <Array as="points">
              <mxPoint x="175" y="330" />
            </Array>
          </mxGeometry>
        </mxCell>
        <mxCell id="30FtFz2RCGsdJv6julSl-72" value="si" style="edgeStyle=orthogonalEdgeStyle;html=1;align=left;verticalAlign=bottom;endArrow=open;endSize=8;strokeColor=#ff0000;rounded=0;entryX=1;entryY=0.5;entryDx=0;entryDy=0;exitX=1;exitY=0.5;exitDx=0;exitDy=0;" edge="1" parent="30FtFz2RCGsdJv6julSl-1" source="30FtFz2RCGsdJv6julSl-71" target="30FtFz2RCGsdJv6julSl-75">
          <mxGeometry x="-1" relative="1" as="geometry">
            <mxPoint x="180" y="470" as="targetPoint" />
            <Array as="points">
              <mxPoint x="670" y="450" />
            </Array>
          </mxGeometry>
        </mxCell>
        <mxCell id="30FtFz2RCGsdJv6julSl-83" style="edgeStyle=orthogonalEdgeStyle;rounded=0;orthogonalLoop=1;jettySize=auto;html=1;exitX=0.75;exitY=0.5;exitDx=0;exitDy=0;exitPerimeter=0;strokeColor=#FF0000;" edge="1" parent="30FtFz2RCGsdJv6julSl-1" source="30FtFz2RCGsdJv6julSl-79" target="30FtFz2RCGsdJv6julSl-77">
          <mxGeometry relative="1" as="geometry">
            <Array as="points" />
          </mxGeometry>
        </mxCell>
        <mxCell id="30FtFz2RCGsdJv6julSl-86" style="edgeStyle=orthogonalEdgeStyle;rounded=0;orthogonalLoop=1;jettySize=auto;html=1;entryX=0;entryY=0.5;entryDx=0;entryDy=0;exitX=0.25;exitY=0.5;exitDx=0;exitDy=0;exitPerimeter=0;strokeColor=light-dark(#FF0800,#D7817E);" edge="1" parent="30FtFz2RCGsdJv6julSl-1" source="30FtFz2RCGsdJv6julSl-79" target="30FtFz2RCGsdJv6julSl-84">
          <mxGeometry relative="1" as="geometry" />
        </mxCell>
        <mxCell id="30FtFz2RCGsdJv6julSl-87" style="edgeStyle=orthogonalEdgeStyle;rounded=0;orthogonalLoop=1;jettySize=auto;html=1;entryX=0;entryY=0.5;entryDx=0;entryDy=0;exitX=0;exitY=0.5;exitDx=0;exitDy=0;fillColor=#f8cecc;strokeColor=light-dark(#ff0800, #d7817e);" edge="1" parent="30FtFz2RCGsdJv6julSl-1" source="30FtFz2RCGsdJv6julSl-36" target="30FtFz2RCGsdJv6julSl-40">
          <mxGeometry relative="1" as="geometry">
            <mxPoint x="60" y="620" as="targetPoint" />
            <Array as="points">
              <mxPoint x="60" y="135" />
              <mxPoint x="60" y="615" />
            </Array>
          </mxGeometry>
        </mxCell>
        <mxCell id="Y5qOcHa0yEXanUPjaL8A-5" value="no&lt;div&gt;&lt;br&gt;&lt;/div&gt;" style="edgeLabel;html=1;align=center;verticalAlign=middle;resizable=0;points=[];" vertex="1" connectable="0" parent="30FtFz2RCGsdJv6julSl-87">
          <mxGeometry x="-0.9278" y="4" relative="1" as="geometry">
            <mxPoint as="offset" />
          </mxGeometry>
        </mxCell>
        <mxCell id="Y5qOcHa0yEXanUPjaL8A-2" style="edgeStyle=orthogonalEdgeStyle;rounded=0;orthogonalLoop=1;jettySize=auto;html=1;entryX=0;entryY=0.5;entryDx=0;entryDy=0;strokeColor=light-dark(#ff0000, #ededed);" edge="1" parent="30FtFz2RCGsdJv6julSl-1" source="Y5qOcHa0yEXanUPjaL8A-1" target="30FtFz2RCGsdJv6julSl-68">
          <mxGeometry relative="1" as="geometry" />
        </mxCell>
        <mxCell id="30FtFz2RCGsdJv6julSl-66" style="edgeStyle=orthogonalEdgeStyle;rounded=0;orthogonalLoop=1;jettySize=auto;html=1;entryX=1;entryY=0;entryDx=0;entryDy=0;strokeColor=light-dark(#ff0000, #ededed);" edge="1" parent="30FtFz2RCGsdJv6julSl-1" source="30FtFz2RCGsdJv6julSl-10" target="hCQ_3N1NEQREZTXW8boa-15">
          <mxGeometry relative="1" as="geometry">
            <Array as="points">
              <mxPoint x="710" y="210" />
            </Array>
          </mxGeometry>
        </mxCell>
        <mxCell id="hCQ_3N1NEQREZTXW8boa-16" style="edgeStyle=orthogonalEdgeStyle;rounded=0;orthogonalLoop=1;jettySize=auto;html=1;entryX=0;entryY=0;entryDx=0;entryDy=0;strokeColor=light-dark(#ff0000, #ededed);exitX=1;exitY=0.75;exitDx=0;exitDy=0;" edge="1" parent="30FtFz2RCGsdJv6julSl-1" source="hCQ_3N1NEQREZTXW8boa-15" target="30FtFz2RCGsdJv6julSl-13">
          <mxGeometry relative="1" as="geometry">
            <Array as="points">
              <mxPoint x="550" y="240" />
              <mxPoint x="550" y="240" />
            </Array>
          </mxGeometry>
        </mxCell>
      </root>
    </mxGraphModel>
  </diagram>
</mxfile>
